<svg xmlns="http://www.w3.org/2000/svg" xmlns:xlink="http://www.w3.org/1999/xlink" width="385pt" height="437pt" version="1.1" viewBox="0 0 385 437"><defs><style type="text/css">*{stroke-linecap:butt;stroke-linejoin:round}</style></defs><g id="figure_1"><g id="patch_1"><path d="M0 437.551 L385.203 437.551 L385.203 0 L0 0 z" style="fill:#fff"/></g><g id="axes_1"><g id="patch_2"><path d="M43.2031 244.518 L195.385 244.518 L195.385 21.3181 L43.2031 21.3181 z" style="fill:#fff"/></g><g id="patch_3"><path d="M48.2759 244.518 L88.8577 244.518 L88.8577 83.3181 L48.2759 83.3181 z" clip-path="url(#pa6e26eda85)" style="fill:red;stroke:#000"/></g><g id="patch_4"><path d="M99.0031 244.518 L139.585 244.518 L139.585 182.518 L99.0031 182.518 z" clip-path="url(#pa6e26eda85)" style="fill:red;stroke:#000"/></g><g id="patch_5"><path d="M149.73 244.518 L190.312 244.518 L190.312 244.518 L149.73 244.518 z" clip-path="url(#pa6e26eda85)" style="fill:red;stroke:#000"/></g><g id="matplotlib.axis_1"><g id="xtick_1"><g id="line2d_1"><defs><path id="m93b0483c22" d="M0 0 L0 -4" style="stroke:#000;stroke-width:.5"/></defs><g><use style="stroke:#000;stroke-width:.5" x="68.567" y="244.518" xlink:href="#m93b0483c22"/></g></g><g id="line2d_2"><defs><path id="m741efc42ff" d="M0 0 L0 4" style="stroke:#000;stroke-width:.5"/></defs><g><use style="stroke:#000;stroke-width:.5" x="68.567" y="21.318" xlink:href="#m741efc42ff"/></g></g><g id="text_1"><defs><path id="BitstreamVeraSans-Roman-20"/><path id="BitstreamVeraSans-Roman-27" d="M17.9219 72.9062 L17.9219 45.7969 L9.625 45.7969 L9.625 72.9062 z"/><path id="BitstreamVeraSans-Roman-6e" d="M54.8906 33.0156 L54.8906 0 L45.9062 0 L45.9062 32.7188 Q45.9062 40.4844 42.875 44.3281 Q39.8438 48.1875 33.7969 48.1875 Q26.5156 48.1875 22.3125 43.5469 Q18.1094 38.9219 18.1094 30.9062 L18.1094 0 L9.07812 0 L9.07812 54.6875 L18.1094 54.6875 L18.1094 46.1875 Q21.3438 51.125 25.7031 53.5625 Q30.0781 56 35.7969 56 Q45.2188 56 50.0469 50.1719 Q54.8906 44.3438 54.8906 33.0156"/><path id="BitstreamVeraSans-Roman-61" d="M34.2812 27.4844 Q23.3906 27.4844 19.1875 25 Q14.9844 22.5156 14.9844 16.5 Q14.9844 11.7188 18.1406 8.90625 Q21.2969 6.10938 26.7031 6.10938 Q34.1875 6.10938 38.7031 11.4062 Q43.2188 16.7031 43.2188 25.4844 L43.2188 27.4844 zM52.2031 31.2031 L52.2031 0 L43.2188 0 L43.2188 8.29688 Q40.1406 3.32812 35.5469 0.953125 Q30.9531 -1.42188 24.3125 -1.42188 Q15.9219 -1.42188 10.9531 3.29688 Q6 8.01562 6 15.9219 Q6 25.1406 12.1719 29.8281 Q18.3594 34.5156 30.6094 34.5156 L43.2188 34.5156 L43.2188 35.4062 Q43.2188 41.6094 39.1406 45 Q35.0625 48.3906 27.6875 48.3906 Q23 48.3906 18.5469 47.2656 Q14.1094 46.1406 10.0156 43.8906 L10.0156 52.2031 Q14.9375 54.1094 19.5781 55.0469 Q24.2188 56 28.6094 56 Q40.4844 56 46.3438 49.8438 Q52.2031 43.7031 52.2031 31.2031"/><path id="BitstreamVeraSans-Roman-6f" d="M30.6094 48.3906 Q23.3906 48.3906 19.1875 42.75 Q14.9844 37.1094 14.9844 27.2969 Q14.9844 17.4844 19.1562 11.8438 Q23.3438 6.20312 30.6094 6.20312 Q37.7969 6.20312 41.9844 11.8594 Q46.1875 17.5312 46.1875 27.2969 Q46.1875 37.0156 41.9844 42.7031 Q37.7969 48.3906 30.6094 48.3906 M30.6094 56 Q42.3281 56 49.0156 48.375 Q55.7188 40.7656 55.7188 27.2969 Q55.7188 13.875 49.0156 6.21875 Q42.3281 -1.42188 30.6094 -1.42188 Q18.8438 -1.42188 12.1719 6.21875 Q5.51562 13.875 5.51562 27.2969 Q5.51562 40.7656 12.1719 48.375 Q18.8438 56 30.6094 56"/><path id="BitstreamVeraSans-Roman-6c" d="M9.42188 75.9844 L18.4062 75.9844 L18.4062 0 L9.42188 0 z"/><path id="BitstreamVeraSans-Roman-6b" d="M9.07812 75.9844 L18.1094 75.9844 L18.1094 31.1094 L44.9219 54.6875 L56.3906 54.6875 L27.3906 29.1094 L57.625 0 L45.9062 0 L18.1094 26.7031 L18.1094 0 L9.07812 0 z"/><path id="BitstreamVeraSans-Roman-2e" d="M10.6875 12.4062 L21 12.4062 L21 0 L10.6875 0 z"/><path id="BitstreamVeraSans-Roman-68" d="M54.8906 33.0156 L54.8906 0 L45.9062 0 L45.9062 32.7188 Q45.9062 40.4844 42.875 44.3281 Q39.8438 48.1875 33.7969 48.1875 Q26.5156 48.1875 22.3125 43.5469 Q18.1094 38.9219 18.1094 30.9062 L18.1094 0 L9.07812 0 L9.07812 75.9844 L18.1094 75.9844 L18.1094 46.1875 Q21.3438 51.125 25.7031 53.5625 Q30.0781 56 35.7969 56 Q45.2188 56 50.0469 50.1719 Q54.8906 44.3438 54.8906 33.0156"/><path id="BitstreamVeraSans-Roman-64" d="M45.4062 46.3906 L45.4062 75.9844 L54.3906 75.9844 L54.3906 0 L45.4062 0 L45.4062 8.20312 Q42.5781 3.32812 38.25 0.953125 Q33.9375 -1.42188 27.875 -1.42188 Q17.9688 -1.42188 11.7344 6.48438 Q5.51562 14.4062 5.51562 27.2969 Q5.51562 40.1875 11.7344 48.0938 Q17.9688 56 27.875 56 Q33.9375 56 38.25 53.625 Q42.5781 51.2656 45.4062 46.3906 M14.7969 27.2969 Q14.7969 17.3906 18.875 11.75 Q22.9531 6.10938 30.0781 6.10938 Q37.2031 6.10938 41.2969 11.75 Q45.4062 17.3906 45.4062 27.2969 Q45.4062 37.2031 41.2969 42.8438 Q37.2031 48.4844 30.0781 48.4844 Q22.9531 48.4844 18.875 42.8438 Q14.7969 37.2031 14.7969 27.2969"/><path id="BitstreamVeraSans-Roman-65" d="M56.2031 29.5938 L56.2031 25.2031 L14.8906 25.2031 Q15.4844 15.9219 20.4844 11.0625 Q25.4844 6.20312 34.4219 6.20312 Q39.5938 6.20312 44.4531 7.46875 Q49.3125 8.73438 54.1094 11.2812 L54.1094 2.78125 Q49.2656 0.734375 44.1875 -0.34375 Q39.1094 -1.42188 33.8906 -1.42188 Q20.7969 -1.42188 13.1562 6.1875 Q5.51562 13.8125 5.51562 26.8125 Q5.51562 40.2344 12.7656 48.1094 Q20.0156 56 32.3281 56 Q43.3594 56 49.7812 48.8906 Q56.2031 41.7969 56.2031 29.5938 M47.2188 32.2344 Q47.125 39.5938 43.0938 43.9844 Q39.0625 48.3906 32.4219 48.3906 Q24.9062 48.3906 20.3906 44.1406 Q15.875 39.8906 15.1875 32.1719 z"/><path id="BitstreamVeraSans-Roman-77" d="M4.20312 54.6875 L13.1875 54.6875 L24.4219 12.0156 L35.5938 54.6875 L46.1875 54.6875 L57.4219 12.0156 L68.6094 54.6875 L77.5938 54.6875 L63.2812 0 L52.6875 0 L40.9219 44.8281 L29.1094 0 L18.5 0 z"/><path id="BitstreamVeraSans-Roman-74" d="M18.3125 70.2188 L18.3125 54.6875 L36.8125 54.6875 L36.8125 47.7031 L18.3125 47.7031 L18.3125 18.0156 Q18.3125 11.3281 20.1406 9.42188 Q21.9688 7.51562 27.5938 7.51562 L36.8125 7.51562 L36.8125 0 L27.5938 0 Q17.1875 0 13.2344 3.875 Q9.28125 7.76562 9.28125 18.0156 L9.28125 47.7031 L2.6875 47.7031 L2.6875 54.6875 L9.28125 54.6875 L9.28125 70.2188 z"/><path id="BitstreamVeraSans-Roman-75" d="M8.5 21.5781 L8.5 54.6875 L17.4844 54.6875 L17.4844 21.9219 Q17.4844 14.1562 20.5 10.2656 Q23.5312 6.39062 29.5938 6.39062 Q36.8594 6.39062 41.0781 11.0312 Q45.3125 15.6719 45.3125 23.6875 L45.3125 54.6875 L54.2969 54.6875 L54.2969 0 L45.3125 0 L45.3125 8.40625 Q42.0469 3.42188 37.7188 1 Q33.4062 -1.42188 27.6875 -1.42188 Q18.2656 -1.42188 13.375 4.4375 Q8.5 10.2969 8.5 21.5781"/><path id="BitstreamVeraSans-Roman-72" d="M41.1094 46.2969 Q39.5938 47.1719 37.8125 47.5781 Q36.0312 48 33.8906 48 Q26.2656 48 22.1875 43.0469 Q18.1094 38.0938 18.1094 28.8125 L18.1094 0 L9.07812 0 L9.07812 54.6875 L18.1094 54.6875 L18.1094 46.1875 Q20.9531 51.1719 25.4844 53.5781 Q30.0312 56 36.5312 56 Q37.4531 56 38.5781 55.875 Q39.7031 55.7656 41.0625 55.5156 z"/><path id="BitstreamVeraSans-Roman-73" d="M44.2812 53.0781 L44.2812 44.5781 Q40.4844 46.5312 36.375 47.5 Q32.2812 48.4844 27.875 48.4844 Q21.1875 48.4844 17.8438 46.4375 Q14.5 44.3906 14.5 40.2812 Q14.5 37.1562 16.8906 35.375 Q19.2812 33.5938 26.5156 31.9844 L29.5938 31.2969 Q39.1562 29.25 43.1875 25.5156 Q47.2188 21.7812 47.2188 15.0938 Q47.2188 7.46875 41.1875 3.01562 Q35.1562 -1.42188 24.6094 -1.42188 Q20.2188 -1.42188 15.4531 -0.5625 Q10.6875 0.296875 5.42188 2 L5.42188 11.2812 Q10.4062 8.6875 15.2344 7.39062 Q20.0625 6.10938 24.8125 6.10938 Q31.1562 6.10938 34.5625 8.28125 Q37.9844 10.4531 37.9844 14.4062 Q37.9844 18.0625 35.5156 20.0156 Q33.0625 21.9688 24.7031 23.7812 L21.5781 24.5156 Q13.2344 26.2656 9.51562 29.9062 Q5.8125 33.5469 5.8125 39.8906 Q5.8125 47.6094 11.2812 51.7969 Q16.75 56 26.8125 56 Q31.7812 56 36.1719 55.2656 Q40.5781 54.5469 44.2812 53.0781"/><path id="BitstreamVeraSans-Roman-49" d="M9.8125 72.9062 L19.6719 72.9062 L19.6719 0 L9.8125 0 z"/></defs><g transform="translate(71.3261363636 402.686875)rotate(-90.0)scale(0.1 -0.1)"><use xlink:href="#BitstreamVeraSans-Roman-49"/><use x="29.492" xlink:href="#BitstreamVeraSans-Roman-20"/><use x="61.279" xlink:href="#BitstreamVeraSans-Roman-77"/><use x="143.066" xlink:href="#BitstreamVeraSans-Roman-6f"/><use x="204.248" xlink:href="#BitstreamVeraSans-Roman-75"/><use x="267.627" xlink:href="#BitstreamVeraSans-Roman-6c"/><use x="295.41" xlink:href="#BitstreamVeraSans-Roman-64"/><use x="358.887" xlink:href="#BitstreamVeraSans-Roman-6e"/><use x="422.266" xlink:href="#BitstreamVeraSans-Roman-27"/><use x="449.756" xlink:href="#BitstreamVeraSans-Roman-74"/><use x="488.965" xlink:href="#BitstreamVeraSans-Roman-20"/><use x="520.752" xlink:href="#BitstreamVeraSans-Roman-6b"/><use x="578.662" xlink:href="#BitstreamVeraSans-Roman-6e"/><use x="642.041" xlink:href="#BitstreamVeraSans-Roman-6f"/><use x="703.223" xlink:href="#BitstreamVeraSans-Roman-77"/><use x="785.01" xlink:href="#BitstreamVeraSans-Roman-20"/><use x="816.797" xlink:href="#BitstreamVeraSans-Roman-77"/><use x="898.584" xlink:href="#BitstreamVeraSans-Roman-68"/><use x="961.963" xlink:href="#BitstreamVeraSans-Roman-65"/><use x="1023.486" xlink:href="#BitstreamVeraSans-Roman-72"/><use x="1062.35" xlink:href="#BitstreamVeraSans-Roman-65"/><use x="1123.873" xlink:href="#BitstreamVeraSans-Roman-20"/><use x="1155.66" xlink:href="#BitstreamVeraSans-Roman-74"/><use x="1194.869" xlink:href="#BitstreamVeraSans-Roman-6f"/><use x="1256.051" xlink:href="#BitstreamVeraSans-Roman-20"/><use x="1287.838" xlink:href="#BitstreamVeraSans-Roman-73"/><use x="1339.938" xlink:href="#BitstreamVeraSans-Roman-74"/><use x="1379.146" xlink:href="#BitstreamVeraSans-Roman-61"/><use x="1440.426" xlink:href="#BitstreamVeraSans-Roman-72"/><use x="1481.539" xlink:href="#BitstreamVeraSans-Roman-74"/><use x="1520.748" xlink:href="#BitstreamVeraSans-Roman-2e"/></g></g></g><g id="xtick_2"><g id="line2d_3"><g><use style="stroke:#000;stroke-width:.5" x="119.294" y="244.518" xlink:href="#m93b0483c22"/></g></g><g id="line2d_4"><g><use style="stroke:#000;stroke-width:.5" x="119.294" y="21.318" xlink:href="#m741efc42ff"/></g></g><g id="text_2"><defs><path id="BitstreamVeraSans-Roman-69" d="M9.42188 54.6875 L18.4062 54.6875 L18.4062 0 L9.42188 0 zM9.42188 75.9844 L18.4062 75.9844 L18.4062 64.5938 L9.42188 64.5938 z"/><path id="BitstreamVeraSans-Roman-63" d="M48.7812 52.5938 L48.7812 44.1875 Q44.9688 46.2969 41.1406 47.3438 Q37.3125 48.3906 33.4062 48.3906 Q24.6562 48.3906 19.8125 42.8438 Q14.9844 37.3125 14.9844 27.2969 Q14.9844 17.2812 19.8125 11.7344 Q24.6562 6.20312 33.4062 6.20312 Q37.3125 6.20312 41.1406 7.25 Q44.9688 8.29688 48.7812 10.4062 L48.7812 2.09375 Q45.0156 0.34375 40.9844 -0.53125 Q36.9688 -1.42188 32.4219 -1.42188 Q20.0625 -1.42188 12.7812 6.34375 Q5.51562 14.1094 5.51562 27.2969 Q5.51562 40.6719 12.8594 48.3281 Q20.2188 56 33.0156 56 Q37.1562 56 41.1094 55.1406 Q45.0625 54.2969 48.7812 52.5938"/><path id="BitstreamVeraSans-Roman-79" d="M32.1719 -5.07812 Q28.375 -14.8438 24.75 -17.8125 Q21.1406 -20.7969 15.0938 -20.7969 L7.90625 -20.7969 L7.90625 -13.2812 L13.1875 -13.2812 Q16.8906 -13.2812 18.9375 -11.5156 Q21 -9.76562 23.4844 -3.21875 L25.0938 0.875 L2.98438 54.6875 L12.5 54.6875 L29.5938 11.9219 L46.6875 54.6875 L56.2031 54.6875 z"/><path id="BitstreamVeraSans-Roman-67" d="M45.4062 27.9844 Q45.4062 37.75 41.375 43.1094 Q37.3594 48.4844 30.0781 48.4844 Q22.8594 48.4844 18.8281 43.1094 Q14.7969 37.75 14.7969 27.9844 Q14.7969 18.2656 18.8281 12.8906 Q22.8594 7.51562 30.0781 7.51562 Q37.3594 7.51562 41.375 12.8906 Q45.4062 18.2656 45.4062 27.9844 M54.3906 6.78125 Q54.3906 -7.17188 48.1875 -13.9844 Q42 -20.7969 29.2031 -20.7969 Q24.4688 -20.7969 20.2656 -20.0938 Q16.0625 -19.3906 12.1094 -17.9219 L12.1094 -9.1875 Q16.0625 -11.3281 19.9219 -12.3438 Q23.7812 -13.375 27.7812 -13.375 Q36.625 -13.375 41.0156 -8.76562 Q45.4062 -4.15625 45.4062 5.17188 L45.4062 9.625 Q42.625 4.78125 38.2812 2.39062 Q33.9375 0 27.875 0 Q17.8281 0 11.6719 7.65625 Q5.51562 15.3281 5.51562 27.9844 Q5.51562 40.6719 11.6719 48.3281 Q17.8281 56 27.875 56 Q33.9375 56 38.2812 53.6094 Q42.625 51.2188 45.4062 46.3906 L45.4062 54.6875 L54.3906 54.6875 z"/><path id="BitstreamVeraSans-Roman-70" d="M18.1094 8.20312 L18.1094 -20.7969 L9.07812 -20.7969 L9.07812 54.6875 L18.1094 54.6875 L18.1094 46.3906 Q20.9531 51.2656 25.2656 53.625 Q29.5938 56 35.5938 56 Q45.5625 56 51.7812 48.0938 Q58.0156 40.1875 58.0156 27.2969 Q58.0156 14.4062 51.7812 6.48438 Q45.5625 -1.42188 35.5938 -1.42188 Q29.5938 -1.42188 25.2656 0.953125 Q20.9531 3.32812 18.1094 8.20312 M48.6875 27.2969 Q48.6875 37.2031 44.6094 42.8438 Q40.5312 48.4844 33.4062 48.4844 Q26.2656 48.4844 22.1875 42.8438 Q18.1094 37.2031 18.1094 27.2969 Q18.1094 17.3906 22.1875 11.75 Q26.2656 6.10938 33.4062 6.10938 Q40.5312 6.10938 44.6094 11.75 Q48.6875 17.3906 48.6875 27.2969"/><path id="BitstreamVeraSans-Roman-62" d="M48.6875 27.2969 Q48.6875 37.2031 44.6094 42.8438 Q40.5312 48.4844 33.4062 48.4844 Q26.2656 48.4844 22.1875 42.8438 Q18.1094 37.2031 18.1094 27.2969 Q18.1094 17.3906 22.1875 11.75 Q26.2656 6.10938 33.4062 6.10938 Q40.5312 6.10938 44.6094 11.75 Q48.6875 17.3906 48.6875 27.2969 M18.1094 46.3906 Q20.9531 51.2656 25.2656 53.625 Q29.5938 56 35.5938 56 Q45.5625 56 51.7812 48.0938 Q58.0156 40.1875 58.0156 27.2969 Q58.0156 14.4062 51.7812 6.48438 Q45.5625 -1.42188 35.5938 -1.42188 Q29.5938 -1.42188 25.2656 0.953125 Q20.9531 3.32812 18.1094 8.20312 L18.1094 0 L9.07812 0 L9.07812 75.9844 L18.1094 75.9844 z"/></defs><g transform="translate(122.053409091 399.6571875)rotate(-90.0)scale(0.1 -0.1)"><use xlink:href="#BitstreamVeraSans-Roman-49"/><use x="29.492" xlink:href="#BitstreamVeraSans-Roman-20"/><use x="61.279" xlink:href="#BitstreamVeraSans-Roman-63"/><use x="116.26" xlink:href="#BitstreamVeraSans-Roman-6f"/><use x="177.441" xlink:href="#BitstreamVeraSans-Roman-75"/><use x="240.82" xlink:href="#BitstreamVeraSans-Roman-6c"/><use x="268.604" xlink:href="#BitstreamVeraSans-Roman-64"/><use x="332.08" xlink:href="#BitstreamVeraSans-Roman-20"/><use x="363.867" xlink:href="#BitstreamVeraSans-Roman-70"/><use x="427.344" xlink:href="#BitstreamVeraSans-Roman-72"/><use x="466.207" xlink:href="#BitstreamVeraSans-Roman-6f"/><use x="527.389" xlink:href="#BitstreamVeraSans-Roman-62"/><use x="590.865" xlink:href="#BitstreamVeraSans-Roman-61"/><use x="652.145" xlink:href="#BitstreamVeraSans-Roman-62"/><use x="715.621" xlink:href="#BitstreamVeraSans-Roman-6c"/><use x="743.404" xlink:href="#BitstreamVeraSans-Roman-79"/><use x="802.584" xlink:href="#BitstreamVeraSans-Roman-20"/><use x="834.371" xlink:href="#BitstreamVeraSans-Roman-73"/><use x="886.471" xlink:href="#BitstreamVeraSans-Roman-74"/><use x="925.68" xlink:href="#BitstreamVeraSans-Roman-72"/><use x="966.793" xlink:href="#BitstreamVeraSans-Roman-75"/><use x="1030.172" xlink:href="#BitstreamVeraSans-Roman-67"/><use x="1093.648" xlink:href="#BitstreamVeraSans-Roman-67"/><use x="1157.125" xlink:href="#BitstreamVeraSans-Roman-6c"/><use x="1184.908" xlink:href="#BitstreamVeraSans-Roman-65"/><use x="1246.432" xlink:href="#BitstreamVeraSans-Roman-20"/><use x="1278.219" xlink:href="#BitstreamVeraSans-Roman-77"/><use x="1360.006" xlink:href="#BitstreamVeraSans-Roman-69"/><use x="1387.789" xlink:href="#BitstreamVeraSans-Roman-74"/><use x="1426.998" xlink:href="#BitstreamVeraSans-Roman-68"/><use x="1490.377" xlink:href="#BitstreamVeraSans-Roman-2e"/></g></g></g><g id="xtick_3"><g id="line2d_5"><g><use style="stroke:#000;stroke-width:.5" x="170.021" y="244.518" xlink:href="#m93b0483c22"/></g></g><g id="line2d_6"><g><use style="stroke:#000;stroke-width:.5" x="170.021" y="21.318" xlink:href="#m741efc42ff"/></g></g><g id="text_3"><g transform="translate(172.780681818 330.1915625)rotate(-90.0)scale(0.1 -0.1)"><use xlink:href="#BitstreamVeraSans-Roman-49"/><use x="29.492" xlink:href="#BitstreamVeraSans-Roman-20"/><use x="61.279" xlink:href="#BitstreamVeraSans-Roman-63"/><use x="116.26" xlink:href="#BitstreamVeraSans-Roman-6f"/><use x="177.441" xlink:href="#BitstreamVeraSans-Roman-75"/><use x="240.82" xlink:href="#BitstreamVeraSans-Roman-6c"/><use x="268.604" xlink:href="#BitstreamVeraSans-Roman-64"/><use x="332.08" xlink:href="#BitstreamVeraSans-Roman-20"/><use x="363.867" xlink:href="#BitstreamVeraSans-Roman-64"/><use x="427.344" xlink:href="#BitstreamVeraSans-Roman-6f"/><use x="488.525" xlink:href="#BitstreamVeraSans-Roman-20"/><use x="520.313" xlink:href="#BitstreamVeraSans-Roman-65"/><use x="581.836" xlink:href="#BitstreamVeraSans-Roman-61"/><use x="643.115" xlink:href="#BitstreamVeraSans-Roman-73"/><use x="695.215" xlink:href="#BitstreamVeraSans-Roman-69"/><use x="722.998" xlink:href="#BitstreamVeraSans-Roman-6c"/><use x="750.781" xlink:href="#BitstreamVeraSans-Roman-79"/><use x="795.711" xlink:href="#BitstreamVeraSans-Roman-2e"/></g></g></g></g><g id="matplotlib.axis_2"><g id="ytick_1"><g id="line2d_7"><defs><path id="m728421d6d4" d="M0 0 L4 0" style="stroke:#000;stroke-width:.5"/></defs><g><use style="stroke:#000;stroke-width:.5" x="43.203" y="244.518" xlink:href="#m728421d6d4"/></g></g><g id="line2d_8"><defs><path id="mcb0005524f" d="M0 0 L-4 0" style="stroke:#000;stroke-width:.5"/></defs><g><use style="stroke:#000;stroke-width:.5" x="195.385" y="244.518" xlink:href="#mcb0005524f"/></g></g><g id="text_4"><defs><path id="BitstreamVeraSans-Roman-30" d="M31.7812 66.4062 Q24.1719 66.4062 20.3281 58.9062 Q16.5 51.4219 16.5 36.375 Q16.5 21.3906 20.3281 13.8906 Q24.1719 6.39062 31.7812 6.39062 Q39.4531 6.39062 43.2812 13.8906 Q47.125 21.3906 47.125 36.375 Q47.125 51.4219 43.2812 58.9062 Q39.4531 66.4062 31.7812 66.4062 M31.7812 74.2188 Q44.0469 74.2188 50.5156 64.5156 Q56.9844 54.8281 56.9844 36.375 Q56.9844 17.9688 50.5156 8.26562 Q44.0469 -1.42188 31.7812 -1.42188 Q19.5312 -1.42188 13.0625 8.26562 Q6.59375 17.9688 6.59375 36.375 Q6.59375 54.8281 13.0625 64.5156 Q19.5312 74.2188 31.7812 74.2188"/></defs><g transform="translate(34.1640625 247.2775)scale(0.1 -0.1)"><use xlink:href="#BitstreamVeraSans-Roman-30"/></g></g></g><g id="ytick_2"><g id="line2d_9"><g><use style="stroke:#000;stroke-width:.5" x="43.203" y="199.878" xlink:href="#m728421d6d4"/></g></g><g id="line2d_10"><g><use style="stroke:#000;stroke-width:.5" x="195.385" y="199.878" xlink:href="#mcb0005524f"/></g></g><g id="text_5"><defs><path id="BitstreamVeraSans-Roman-32" d="M19.1875 8.29688 L53.6094 8.29688 L53.6094 0 L7.32812 0 L7.32812 8.29688 Q12.9375 14.1094 22.625 23.8906 Q32.3281 33.6875 34.8125 36.5312 Q39.5469 41.8438 41.4219 45.5312 Q43.3125 49.2188 43.3125 52.7812 Q43.3125 58.5938 39.2344 62.25 Q35.1562 65.9219 28.6094 65.9219 Q23.9688 65.9219 18.8125 64.3125 Q13.6719 62.7031 7.8125 59.4219 L7.8125 69.3906 Q13.7656 71.7812 18.9375 73 Q24.125 74.2188 28.4219 74.2188 Q39.75 74.2188 46.4844 68.5469 Q53.2188 62.8906 53.2188 53.4219 Q53.2188 48.9219 51.5312 44.8906 Q49.8594 40.875 45.4062 35.4062 Q44.1875 33.9844 37.6406 27.2188 Q31.1094 20.4531 19.1875 8.29688"/></defs><g transform="translate(27.875 202.6375)scale(0.1 -0.1)"><use xlink:href="#BitstreamVeraSans-Roman-32"/><use x="63.623" xlink:href="#BitstreamVeraSans-Roman-30"/></g></g></g><g id="ytick_3"><g id="line2d_11"><g><use style="stroke:#000;stroke-width:.5" x="43.203" y="155.238" xlink:href="#m728421d6d4"/></g></g><g id="line2d_12"><g><use style="stroke:#000;stroke-width:.5" x="195.385" y="155.238" xlink:href="#mcb0005524f"/></g></g><g id="text_6"><defs><path id="BitstreamVeraSans-Roman-34" d="M37.7969 64.3125 L12.8906 25.3906 L37.7969 25.3906 zM35.2031 72.9062 L47.6094 72.9062 L47.6094 25.3906 L58.0156 25.3906 L58.0156 17.1875 L47.6094 17.1875 L47.6094 0 L37.7969 0 L37.7969 17.1875 L4.89062 17.1875 L4.89062 26.7031 z"/></defs><g transform="translate(27.63125 157.9975)scale(0.1 -0.1)"><use xlink:href="#BitstreamVeraSans-Roman-34"/><use x="63.623" xlink:href="#BitstreamVeraSans-Roman-30"/></g></g></g><g id="ytick_4"><g id="line2d_13"><g><use style="stroke:#000;stroke-width:.5" x="43.203" y="110.598" xlink:href="#m728421d6d4"/></g></g><g id="line2d_14"><g><use style="stroke:#000;stroke-width:.5" x="195.385" y="110.598" xlink:href="#mcb0005524f"/></g></g><g id="text_7"><defs><path id="BitstreamVeraSans-Roman-36" d="M33.0156 40.375 Q26.375 40.375 22.4844 35.8281 Q18.6094 31.2969 18.6094 23.3906 Q18.6094 15.5312 22.4844 10.9531 Q26.375 6.39062 33.0156 6.39062 Q39.6562 6.39062 43.5312 10.9531 Q47.4062 15.5312 47.4062 23.3906 Q47.4062 31.2969 43.5312 35.8281 Q39.6562 40.375 33.0156 40.375 M52.5938 71.2969 L52.5938 62.3125 Q48.875 64.0625 45.0938 64.9844 Q41.3125 65.9219 37.5938 65.9219 Q27.8281 65.9219 22.6719 59.3281 Q17.5312 52.7344 16.7969 39.4062 Q19.6719 43.6562 24.0156 45.9219 Q28.375 48.1875 33.5938 48.1875 Q44.5781 48.1875 50.9531 41.5156 Q57.3281 34.8594 57.3281 23.3906 Q57.3281 12.1562 50.6875 5.35938 Q44.0469 -1.42188 33.0156 -1.42188 Q20.3594 -1.42188 13.6719 8.26562 Q6.98438 17.9688 6.98438 36.375 Q6.98438 53.6562 15.1875 63.9375 Q23.3906 74.2188 37.2031 74.2188 Q40.9219 74.2188 44.7031 73.4844 Q48.4844 72.75 52.5938 71.2969"/></defs><g transform="translate(27.840625 113.3575)scale(0.1 -0.1)"><use xlink:href="#BitstreamVeraSans-Roman-36"/><use x="63.623" xlink:href="#BitstreamVeraSans-Roman-30"/></g></g></g><g id="ytick_5"><g id="line2d_15"><g><use style="stroke:#000;stroke-width:.5" x="43.203" y="65.958" xlink:href="#m728421d6d4"/></g></g><g id="line2d_16"><g><use style="stroke:#000;stroke-width:.5" x="195.385" y="65.958" xlink:href="#mcb0005524f"/></g></g><g id="text_8"><defs><path id="BitstreamVeraSans-Roman-38" d="M31.7812 34.625 Q24.75 34.625 20.7188 30.8594 Q16.7031 27.0938 16.7031 20.5156 Q16.7031 13.9219 20.7188 10.1562 Q24.75 6.39062 31.7812 6.39062 Q38.8125 6.39062 42.8594 10.1719 Q46.9219 13.9688 46.9219 20.5156 Q46.9219 27.0938 42.8906 30.8594 Q38.875 34.625 31.7812 34.625 M21.9219 38.8125 Q15.5781 40.375 12.0312 44.7188 Q8.5 49.0781 8.5 55.3281 Q8.5 64.0625 14.7188 69.1406 Q20.9531 74.2188 31.7812 74.2188 Q42.6719 74.2188 48.875 69.1406 Q55.0781 64.0625 55.0781 55.3281 Q55.0781 49.0781 51.5312 44.7188 Q48 40.375 41.7031 38.8125 Q48.8281 37.1562 52.7969 32.3125 Q56.7812 27.4844 56.7812 20.5156 Q56.7812 9.90625 50.3125 4.23438 Q43.8438 -1.42188 31.7812 -1.42188 Q19.7344 -1.42188 13.25 4.23438 Q6.78125 9.90625 6.78125 20.5156 Q6.78125 27.4844 10.7812 32.3125 Q14.7969 37.1562 21.9219 38.8125 M18.3125 54.3906 Q18.3125 48.7344 21.8438 45.5625 Q25.3906 42.3906 31.7812 42.3906 Q38.1406 42.3906 41.7188 45.5625 Q45.3125 48.7344 45.3125 54.3906 Q45.3125 60.0625 41.7188 63.2344 Q38.1406 66.4062 31.7812 66.4062 Q25.3906 66.4062 21.8438 63.2344 Q18.3125 60.0625 18.3125 54.3906"/></defs><g transform="translate(27.8203125 68.7175)scale(0.1 -0.1)"><use xlink:href="#BitstreamVeraSans-Roman-38"/><use x="63.623" xlink:href="#BitstreamVeraSans-Roman-30"/></g></g></g><g id="ytick_6"><g id="line2d_17"><g><use style="stroke:#000;stroke-width:.5" x="43.203" y="21.318" xlink:href="#m728421d6d4"/></g></g><g id="line2d_18"><g><use style="stroke:#000;stroke-width:.5" x="195.385" y="21.318" xlink:href="#mcb0005524f"/></g></g><g id="text_9"><defs><path id="BitstreamVeraSans-Roman-31" d="M12.4062 8.29688 L28.5156 8.29688 L28.5156 63.9219 L10.9844 60.4062 L10.9844 69.3906 L28.4219 72.9062 L38.2812 72.9062 L38.2812 8.29688 L54.3906 8.29688 L54.3906 0 L12.4062 0 z"/></defs><g transform="translate(21.878125 24.0775)scale(0.1 -0.1)"><use xlink:href="#BitstreamVeraSans-Roman-31"/><use x="63.623" xlink:href="#BitstreamVeraSans-Roman-30"/><use x="127.246" xlink:href="#BitstreamVeraSans-Roman-30"/></g></g></g><g id="text_10"><defs><path id="BitstreamVeraSans-Roman-25" d="M72.7031 32.0781 Q68.4531 32.0781 66.0312 28.4688 Q63.625 24.8594 63.625 18.4062 Q63.625 12.0625 66.0312 8.42188 Q68.4531 4.78125 72.7031 4.78125 Q76.8594 4.78125 79.2656 8.42188 Q81.6875 12.0625 81.6875 18.4062 Q81.6875 24.8125 79.2656 28.4375 Q76.8594 32.0781 72.7031 32.0781 M72.7031 38.2812 Q80.4219 38.2812 84.9531 32.9062 Q89.5 27.5469 89.5 18.4062 Q89.5 9.28125 84.9375 3.92188 Q80.375 -1.42188 72.7031 -1.42188 Q64.8906 -1.42188 60.3438 3.92188 Q55.8125 9.28125 55.8125 18.4062 Q55.8125 27.5938 60.375 32.9375 Q64.9375 38.2812 72.7031 38.2812 M22.3125 68.0156 Q18.1094 68.0156 15.6875 64.375 Q13.2812 60.75 13.2812 54.3906 Q13.2812 47.9531 15.6719 44.3281 Q18.0625 40.7188 22.3125 40.7188 Q26.5625 40.7188 28.9688 44.3281 Q31.3906 47.9531 31.3906 54.3906 Q31.3906 60.6875 28.9531 64.3438 Q26.5156 68.0156 22.3125 68.0156 M66.4062 74.2188 L74.2188 74.2188 L28.6094 -1.42188 L20.7969 -1.42188 zM22.3125 74.2188 Q30.0312 74.2188 34.6094 68.875 Q39.2031 63.5312 39.2031 54.3906 Q39.2031 45.1719 34.6406 39.8438 Q30.0781 34.5156 22.3125 34.5156 Q14.5469 34.5156 10.0312 39.8594 Q5.51562 45.2188 5.51562 54.3906 Q5.51562 63.4844 10.0469 68.8438 Q14.5938 74.2188 22.3125 74.2188"/><path id="BitstreamVeraSans-Roman-29" d="M8.01562 75.875 L15.8281 75.875 Q23.1406 64.3594 26.7812 53.3125 Q30.4219 42.2812 30.4219 31.3906 Q30.4219 20.4531 26.7812 9.375 Q23.1406 -1.70312 15.8281 -13.1875 L8.01562 -13.1875 Q14.5 -2 17.7031 9.0625 Q20.9062 20.125 20.9062 31.3906 Q20.9062 42.6719 17.7031 53.6562 Q14.5 64.6562 8.01562 75.875"/><path id="BitstreamVeraSans-Roman-28" d="M31 75.875 Q24.4688 64.6562 21.2812 53.6562 Q18.1094 42.6719 18.1094 31.3906 Q18.1094 20.125 21.3125 9.0625 Q24.5156 -2 31 -13.1875 L23.1875 -13.1875 Q15.875 -1.70312 12.2344 9.375 Q8.59375 20.4531 8.59375 31.3906 Q8.59375 42.2812 12.2031 53.3125 Q15.8281 64.3594 23.1875 75.875 z"/><path id="BitstreamVeraSans-Roman-50" d="M19.6719 64.7969 L19.6719 37.4062 L32.0781 37.4062 Q38.9688 37.4062 42.7188 40.9688 Q46.4844 44.5312 46.4844 51.125 Q46.4844 57.6719 42.7188 61.2344 Q38.9688 64.7969 32.0781 64.7969 zM9.8125 72.9062 L32.0781 72.9062 Q44.3438 72.9062 50.6094 67.3594 Q56.8906 61.8125 56.8906 51.125 Q56.8906 40.3281 50.6094 34.8125 Q44.3438 29.2969 32.0781 29.2969 L19.6719 29.2969 L19.6719 0 L9.8125 0 z"/><path id="BitstreamVeraSans-Roman-43" d="M64.4062 67.2812 L64.4062 56.8906 Q59.4219 61.5312 53.7812 63.8125 Q48.1406 66.1094 41.7969 66.1094 Q29.2969 66.1094 22.6562 58.4688 Q16.0156 50.8281 16.0156 36.375 Q16.0156 21.9688 22.6562 14.3281 Q29.2969 6.6875 41.7969 6.6875 Q48.1406 6.6875 53.7812 8.98438 Q59.4219 11.2812 64.4062 15.9219 L64.4062 5.60938 Q59.2344 2.09375 53.4375 0.328125 Q47.6562 -1.42188 41.2188 -1.42188 Q24.6562 -1.42188 15.125 8.70312 Q5.60938 18.8438 5.60938 36.375 Q5.60938 53.9531 15.125 64.0781 Q24.6562 74.2188 41.2188 74.2188 Q47.75 74.2188 53.5312 72.4844 Q59.3281 70.75 64.4062 67.2812"/><path id="BitstreamVeraSans-Roman-56" d="M28.6094 0 L0.78125 72.9062 L11.0781 72.9062 L34.1875 11.5312 L57.3281 72.9062 L67.5781 72.9062 L39.7969 0 z"/></defs><g transform="translate(14.7984375 210.4884375)rotate(-90.0)scale(0.1 -0.1)"><use xlink:href="#BitstreamVeraSans-Roman-56"/><use x="60.658" xlink:href="#BitstreamVeraSans-Roman-65"/><use x="122.182" xlink:href="#BitstreamVeraSans-Roman-72"/><use x="163.295" xlink:href="#BitstreamVeraSans-Roman-73"/><use x="215.395" xlink:href="#BitstreamVeraSans-Roman-69"/><use x="243.178" xlink:href="#BitstreamVeraSans-Roman-6f"/><use x="304.359" xlink:href="#BitstreamVeraSans-Roman-6e"/><use x="367.738" xlink:href="#BitstreamVeraSans-Roman-20"/><use x="399.525" xlink:href="#BitstreamVeraSans-Roman-43"/><use x="469.35" xlink:href="#BitstreamVeraSans-Roman-6f"/><use x="530.531" xlink:href="#BitstreamVeraSans-Roman-6e"/><use x="593.91" xlink:href="#BitstreamVeraSans-Roman-74"/><use x="633.119" xlink:href="#BitstreamVeraSans-Roman-72"/><use x="671.982" xlink:href="#BitstreamVeraSans-Roman-6f"/><use x="733.164" xlink:href="#BitstreamVeraSans-Roman-6c"/><use x="760.947" xlink:href="#BitstreamVeraSans-Roman-20"/><use x="792.734" xlink:href="#BitstreamVeraSans-Roman-50"/><use x="849.412" xlink:href="#BitstreamVeraSans-Roman-65"/><use x="910.936" xlink:href="#BitstreamVeraSans-Roman-72"/><use x="949.799" xlink:href="#BitstreamVeraSans-Roman-63"/><use x="1004.779" xlink:href="#BitstreamVeraSans-Roman-65"/><use x="1066.303" xlink:href="#BitstreamVeraSans-Roman-6e"/><use x="1129.682" xlink:href="#BitstreamVeraSans-Roman-74"/><use x="1168.891" xlink:href="#BitstreamVeraSans-Roman-61"/><use x="1230.17" xlink:href="#BitstreamVeraSans-Roman-67"/><use x="1293.646" xlink:href="#BitstreamVeraSans-Roman-65"/><use x="1355.17" xlink:href="#BitstreamVeraSans-Roman-20"/><use x="1386.957" xlink:href="#BitstreamVeraSans-Roman-28"/><use x="1425.971" xlink:href="#BitstreamVeraSans-Roman-25"/><use x="1520.99" xlink:href="#BitstreamVeraSans-Roman-29"/></g></g></g><g id="patch_6"><path d="M43.2031 21.3181 L195.385 21.3181" style="fill:none;stroke:#000"/></g><g id="patch_7"><path d="M195.385 244.518 L195.385 21.3181" style="fill:none;stroke:#000"/></g><g id="patch_8"><path d="M43.2031 244.518 L195.385 244.518" style="fill:none;stroke:#000"/></g><g id="patch_9"><path d="M43.2031 244.518 L43.2031 21.3181" style="fill:none;stroke:#000"/></g><g id="text_11"><defs><path id="BitstreamVeraSans-Roman-6d" d="M52 44.1875 Q55.375 50.25 60.0625 53.125 Q64.75 56 71.0938 56 Q79.6406 56 84.2812 50.0156 Q88.9219 44.0469 88.9219 33.0156 L88.9219 0 L79.8906 0 L79.8906 32.7188 Q79.8906 40.5781 77.0938 44.375 Q74.3125 48.1875 68.6094 48.1875 Q61.625 48.1875 57.5625 43.5469 Q53.5156 38.9219 53.5156 30.9062 L53.5156 0 L44.4844 0 L44.4844 32.7188 Q44.4844 40.625 41.7031 44.4062 Q38.9219 48.1875 33.1094 48.1875 Q26.2188 48.1875 22.1562 43.5312 Q18.1094 38.875 18.1094 30.9062 L18.1094 0 L9.07812 0 L9.07812 54.6875 L18.1094 54.6875 L18.1094 46.1875 Q21.1875 51.2188 25.4844 53.6094 Q29.7812 56 35.6875 56 Q41.6562 56 45.8281 52.9688 Q50 49.9531 52 44.1875"/><path id="BitstreamVeraSans-Roman-2d" d="M4.89062 31.3906 L31.2031 31.3906 L31.2031 23.3906 L4.89062 23.3906 z"/><path id="BitstreamVeraSans-Roman-41" d="M34.1875 63.1875 L20.7969 26.9062 L47.6094 26.9062 zM28.6094 72.9062 L39.7969 72.9062 L67.5781 0 L57.3281 0 L50.6875 18.7031 L17.8281 18.7031 L11.1875 0 L0.78125 0 z"/></defs><g transform="translate(64.7418465909 16.318125)scale(0.12 -0.12)"><use xlink:href="#BitstreamVeraSans-Roman-28"/><use x="39.014" xlink:href="#BitstreamVeraSans-Roman-61"/><use x="100.293" xlink:href="#BitstreamVeraSans-Roman-29"/><use x="139.307" xlink:href="#BitstreamVeraSans-Roman-20"/><use x="171.094" xlink:href="#BitstreamVeraSans-Roman-50"/><use x="229.646" xlink:href="#BitstreamVeraSans-Roman-72"/><use x="268.51" xlink:href="#BitstreamVeraSans-Roman-65"/><use x="330.033" xlink:href="#BitstreamVeraSans-Roman-2d"/><use x="363.867" xlink:href="#BitstreamVeraSans-Roman-41"/><use x="432.275" xlink:href="#BitstreamVeraSans-Roman-73"/><use x="484.375" xlink:href="#BitstreamVeraSans-Roman-73"/><use x="536.475" xlink:href="#BitstreamVeraSans-Roman-65"/><use x="597.998" xlink:href="#BitstreamVeraSans-Roman-73"/><use x="650.098" xlink:href="#BitstreamVeraSans-Roman-6d"/><use x="747.51" xlink:href="#BitstreamVeraSans-Roman-65"/><use x="809.033" xlink:href="#BitstreamVeraSans-Roman-6e"/><use x="872.412" xlink:href="#BitstreamVeraSans-Roman-74"/></g></g></g><g id="axes_2"><g id="patch_10"><path d="M225.821 244.518 L378.003 244.518 L378.003 21.3181 L225.821 21.3181 z" style="fill:#fff"/></g><g id="patch_11"><path d="M229.626 244.518 L260.062 244.518 L260.062 195.996 L229.626 195.996 z" clip-path="url(#p019a156991)" style="fill:green;stroke:#000"/></g><g id="patch_12"><path d="M267.671 244.518 L298.108 244.518 L298.108 191.144 L267.671 191.144 z" clip-path="url(#p019a156991)" style="fill:green;stroke:#000"/></g><g id="patch_13"><path d="M305.717 244.518 L336.153 244.518 L336.153 176.588 L305.717 176.588 z" clip-path="url(#p019a156991)" style="fill:green;stroke:#000"/></g><g id="patch_14"><path d="M343.762 244.518 L374.199 244.518 L374.199 191.144 L343.762 191.144 z" clip-path="url(#p019a156991)" style="fill:green;stroke:#000"/></g><g id="matplotlib.axis_3"><g id="xtick_4"><g id="line2d_19"><g><use style="stroke:#000;stroke-width:.5" x="244.844" y="244.518" xlink:href="#m93b0483c22"/></g></g><g id="line2d_20"><g><use style="stroke:#000;stroke-width:.5" x="244.844" y="21.318" xlink:href="#m741efc42ff"/></g></g><g id="text_12"><defs><path id="BitstreamVeraSans-Roman-66" d="M37.1094 75.9844 L37.1094 68.5 L28.5156 68.5 Q23.6875 68.5 21.7969 66.5469 Q19.9219 64.5938 19.9219 59.5156 L19.9219 54.6875 L34.7188 54.6875 L34.7188 47.7031 L19.9219 47.7031 L19.9219 0 L10.8906 0 L10.8906 47.7031 L2.29688 47.7031 L2.29688 54.6875 L10.8906 54.6875 L10.8906 58.5 Q10.8906 67.625 15.1406 71.7969 Q19.3906 75.9844 28.6094 75.9844 z"/></defs><g transform="translate(247.603409091 373.9275)rotate(-90.0)scale(0.1 -0.1)"><use xlink:href="#BitstreamVeraSans-Roman-49"/><use x="29.492" xlink:href="#BitstreamVeraSans-Roman-20"/><use x="61.279" xlink:href="#BitstreamVeraSans-Roman-61"/><use x="122.559" xlink:href="#BitstreamVeraSans-Roman-6d"/><use x="219.971" xlink:href="#BitstreamVeraSans-Roman-20"/><use x="251.758" xlink:href="#BitstreamVeraSans-Roman-6e"/><use x="315.137" xlink:href="#BitstreamVeraSans-Roman-6f"/><use x="376.318" xlink:href="#BitstreamVeraSans-Roman-74"/><use x="415.527" xlink:href="#BitstreamVeraSans-Roman-20"/><use x="447.314" xlink:href="#BitstreamVeraSans-Roman-66"/><use x="482.52" xlink:href="#BitstreamVeraSans-Roman-61"/><use x="543.799" xlink:href="#BitstreamVeraSans-Roman-6d"/><use x="641.211" xlink:href="#BitstreamVeraSans-Roman-69"/><use x="668.994" xlink:href="#BitstreamVeraSans-Roman-6c"/><use x="696.777" xlink:href="#BitstreamVeraSans-Roman-69"/><use x="724.561" xlink:href="#BitstreamVeraSans-Roman-61"/><use x="785.84" xlink:href="#BitstreamVeraSans-Roman-72"/><use x="826.953" xlink:href="#BitstreamVeraSans-Roman-20"/><use x="858.74" xlink:href="#BitstreamVeraSans-Roman-77"/><use x="940.527" xlink:href="#BitstreamVeraSans-Roman-69"/><use x="968.311" xlink:href="#BitstreamVeraSans-Roman-74"/><use x="1007.52" xlink:href="#BitstreamVeraSans-Roman-68"/><use x="1070.898" xlink:href="#BitstreamVeraSans-Roman-20"/><use x="1102.686" xlink:href="#BitstreamVeraSans-Roman-67"/><use x="1166.162" xlink:href="#BitstreamVeraSans-Roman-69"/><use x="1193.945" xlink:href="#BitstreamVeraSans-Roman-74"/><use x="1233.154" xlink:href="#BitstreamVeraSans-Roman-2e"/></g></g></g><g id="xtick_5"><g id="line2d_21"><g><use style="stroke:#000;stroke-width:.5" x="282.889" y="244.518" xlink:href="#m93b0483c22"/></g></g><g id="line2d_22"><g><use style="stroke:#000;stroke-width:.5" x="282.889" y="21.318" xlink:href="#m741efc42ff"/></g></g><g id="text_13"><g transform="translate(285.648863636 380.3509375)rotate(-90.0)scale(0.1 -0.1)"><use xlink:href="#BitstreamVeraSans-Roman-49"/><use x="29.492" xlink:href="#BitstreamVeraSans-Roman-20"/><use x="61.279" xlink:href="#BitstreamVeraSans-Roman-6f"/><use x="122.461" xlink:href="#BitstreamVeraSans-Roman-6e"/><use x="185.84" xlink:href="#BitstreamVeraSans-Roman-6c"/><use x="213.623" xlink:href="#BitstreamVeraSans-Roman-79"/><use x="272.803" xlink:href="#BitstreamVeraSans-Roman-20"/><use x="304.59" xlink:href="#BitstreamVeraSans-Roman-6b"/><use x="362.5" xlink:href="#BitstreamVeraSans-Roman-6e"/><use x="425.879" xlink:href="#BitstreamVeraSans-Roman-6f"/><use x="487.061" xlink:href="#BitstreamVeraSans-Roman-77"/><use x="568.848" xlink:href="#BitstreamVeraSans-Roman-20"/><use x="600.635" xlink:href="#BitstreamVeraSans-Roman-74"/><use x="639.844" xlink:href="#BitstreamVeraSans-Roman-68"/><use x="703.223" xlink:href="#BitstreamVeraSans-Roman-65"/><use x="764.746" xlink:href="#BitstreamVeraSans-Roman-20"/><use x="796.533" xlink:href="#BitstreamVeraSans-Roman-6e"/><use x="859.912" xlink:href="#BitstreamVeraSans-Roman-61"/><use x="921.191" xlink:href="#BitstreamVeraSans-Roman-6d"/><use x="1018.604" xlink:href="#BitstreamVeraSans-Roman-65"/><use x="1080.127" xlink:href="#BitstreamVeraSans-Roman-20"/><use x="1111.914" xlink:href="#BitstreamVeraSans-Roman-27"/><use x="1139.404" xlink:href="#BitstreamVeraSans-Roman-67"/><use x="1202.881" xlink:href="#BitstreamVeraSans-Roman-69"/><use x="1230.664" xlink:href="#BitstreamVeraSans-Roman-74"/><use x="1269.873" xlink:href="#BitstreamVeraSans-Roman-27"/><use x="1297.363" xlink:href="#BitstreamVeraSans-Roman-2e"/></g></g></g><g id="xtick_6"><g id="line2d_23"><g><use style="stroke:#000;stroke-width:.5" x="320.935" y="244.518" xlink:href="#m93b0483c22"/></g></g><g id="line2d_24"><g><use style="stroke:#000;stroke-width:.5" x="320.935" y="21.318" xlink:href="#m741efc42ff"/></g></g><g id="text_14"><defs><path id="BitstreamVeraSans-Roman-76" d="M2.98438 54.6875 L12.5 54.6875 L29.5938 8.79688 L46.6875 54.6875 L56.2031 54.6875 L35.6875 0 L23.4844 0 z"/></defs><g transform="translate(323.694318182 424.261875)rotate(-90.0)scale(0.1 -0.1)"><use xlink:href="#BitstreamVeraSans-Roman-49"/><use x="29.492" xlink:href="#BitstreamVeraSans-Roman-20"/><use x="61.279" xlink:href="#BitstreamVeraSans-Roman-61"/><use x="122.559" xlink:href="#BitstreamVeraSans-Roman-6d"/><use x="219.971" xlink:href="#BitstreamVeraSans-Roman-20"/><use x="251.758" xlink:href="#BitstreamVeraSans-Roman-66"/><use x="286.963" xlink:href="#BitstreamVeraSans-Roman-61"/><use x="348.242" xlink:href="#BitstreamVeraSans-Roman-6d"/><use x="445.654" xlink:href="#BitstreamVeraSans-Roman-69"/><use x="473.438" xlink:href="#BitstreamVeraSans-Roman-6c"/><use x="501.221" xlink:href="#BitstreamVeraSans-Roman-69"/><use x="529.004" xlink:href="#BitstreamVeraSans-Roman-61"/><use x="590.283" xlink:href="#BitstreamVeraSans-Roman-72"/><use x="631.396" xlink:href="#BitstreamVeraSans-Roman-20"/><use x="663.184" xlink:href="#BitstreamVeraSans-Roman-62"/><use x="726.66" xlink:href="#BitstreamVeraSans-Roman-75"/><use x="790.039" xlink:href="#BitstreamVeraSans-Roman-74"/><use x="829.248" xlink:href="#BitstreamVeraSans-Roman-20"/><use x="861.035" xlink:href="#BitstreamVeraSans-Roman-68"/><use x="924.414" xlink:href="#BitstreamVeraSans-Roman-61"/><use x="985.693" xlink:href="#BitstreamVeraSans-Roman-76"/><use x="1044.873" xlink:href="#BitstreamVeraSans-Roman-65"/><use x="1106.396" xlink:href="#BitstreamVeraSans-Roman-20"/><use x="1138.184" xlink:href="#BitstreamVeraSans-Roman-6e"/><use x="1201.563" xlink:href="#BitstreamVeraSans-Roman-6f"/><use x="1262.744" xlink:href="#BitstreamVeraSans-Roman-74"/><use x="1301.953" xlink:href="#BitstreamVeraSans-Roman-20"/><use x="1333.74" xlink:href="#BitstreamVeraSans-Roman-75"/><use x="1397.119" xlink:href="#BitstreamVeraSans-Roman-73"/><use x="1449.219" xlink:href="#BitstreamVeraSans-Roman-65"/><use x="1510.742" xlink:href="#BitstreamVeraSans-Roman-64"/><use x="1574.219" xlink:href="#BitstreamVeraSans-Roman-20"/><use x="1606.006" xlink:href="#BitstreamVeraSans-Roman-67"/><use x="1669.482" xlink:href="#BitstreamVeraSans-Roman-69"/><use x="1697.266" xlink:href="#BitstreamVeraSans-Roman-74"/><use x="1736.475" xlink:href="#BitstreamVeraSans-Roman-2e"/></g></g></g><g id="xtick_7"><g id="line2d_25"><g><use style="stroke:#000;stroke-width:.5" x="358.98" y="244.518" xlink:href="#m93b0483c22"/></g></g><g id="line2d_26"><g><use style="stroke:#000;stroke-width:.5" x="358.98" y="21.318" xlink:href="#m741efc42ff"/></g></g><g id="text_15"><g transform="translate(361.739772727 430.3509375)rotate(-90.0)scale(0.1 -0.1)"><use xlink:href="#BitstreamVeraSans-Roman-49"/><use x="29.492" xlink:href="#BitstreamVeraSans-Roman-20"/><use x="61.279" xlink:href="#BitstreamVeraSans-Roman-61"/><use x="122.559" xlink:href="#BitstreamVeraSans-Roman-6d"/><use x="219.971" xlink:href="#BitstreamVeraSans-Roman-20"/><use x="251.758" xlink:href="#BitstreamVeraSans-Roman-66"/><use x="286.963" xlink:href="#BitstreamVeraSans-Roman-61"/><use x="348.242" xlink:href="#BitstreamVeraSans-Roman-6d"/><use x="445.654" xlink:href="#BitstreamVeraSans-Roman-69"/><use x="473.438" xlink:href="#BitstreamVeraSans-Roman-6c"/><use x="501.221" xlink:href="#BitstreamVeraSans-Roman-69"/><use x="529.004" xlink:href="#BitstreamVeraSans-Roman-61"/><use x="590.283" xlink:href="#BitstreamVeraSans-Roman-72"/><use x="631.396" xlink:href="#BitstreamVeraSans-Roman-20"/><use x="663.184" xlink:href="#BitstreamVeraSans-Roman-62"/><use x="726.66" xlink:href="#BitstreamVeraSans-Roman-65"/><use x="788.184" xlink:href="#BitstreamVeraSans-Roman-63"/><use x="843.164" xlink:href="#BitstreamVeraSans-Roman-61"/><use x="904.443" xlink:href="#BitstreamVeraSans-Roman-75"/><use x="967.822" xlink:href="#BitstreamVeraSans-Roman-73"/><use x="1019.922" xlink:href="#BitstreamVeraSans-Roman-65"/><use x="1081.445" xlink:href="#BitstreamVeraSans-Roman-20"/><use x="1113.232" xlink:href="#BitstreamVeraSans-Roman-49"/><use x="1142.725" xlink:href="#BitstreamVeraSans-Roman-20"/><use x="1174.512" xlink:href="#BitstreamVeraSans-Roman-61"/><use x="1235.791" xlink:href="#BitstreamVeraSans-Roman-6d"/><use x="1333.203" xlink:href="#BitstreamVeraSans-Roman-20"/><use x="1364.99" xlink:href="#BitstreamVeraSans-Roman-75"/><use x="1428.369" xlink:href="#BitstreamVeraSans-Roman-73"/><use x="1480.469" xlink:href="#BitstreamVeraSans-Roman-69"/><use x="1508.252" xlink:href="#BitstreamVeraSans-Roman-6e"/><use x="1571.631" xlink:href="#BitstreamVeraSans-Roman-67"/><use x="1635.107" xlink:href="#BitstreamVeraSans-Roman-20"/><use x="1666.895" xlink:href="#BitstreamVeraSans-Roman-67"/><use x="1730.371" xlink:href="#BitstreamVeraSans-Roman-69"/><use x="1758.154" xlink:href="#BitstreamVeraSans-Roman-74"/><use x="1797.363" xlink:href="#BitstreamVeraSans-Roman-2e"/></g></g></g></g><g id="matplotlib.axis_4"><g id="ytick_7"><g id="line2d_27"><g><use style="stroke:#000;stroke-width:.5" x="225.821" y="244.518" xlink:href="#m728421d6d4"/></g></g><g id="line2d_28"><g><use style="stroke:#000;stroke-width:.5" x="378.003" y="244.518" xlink:href="#mcb0005524f"/></g></g><g id="text_16"><g transform="translate(216.782244318 247.2775)scale(0.1 -0.1)"><use xlink:href="#BitstreamVeraSans-Roman-30"/></g></g></g><g id="ytick_8"><g id="line2d_29"><g><use style="stroke:#000;stroke-width:.5" x="225.821" y="199.878" xlink:href="#m728421d6d4"/></g></g><g id="line2d_30"><g><use style="stroke:#000;stroke-width:.5" x="378.003" y="199.878" xlink:href="#mcb0005524f"/></g></g><g id="text_17"><g transform="translate(210.493181818 202.6375)scale(0.1 -0.1)"><use xlink:href="#BitstreamVeraSans-Roman-32"/><use x="63.623" xlink:href="#BitstreamVeraSans-Roman-30"/></g></g></g><g id="ytick_9"><g id="line2d_31"><g><use style="stroke:#000;stroke-width:.5" x="225.821" y="155.238" xlink:href="#m728421d6d4"/></g></g><g id="line2d_32"><g><use style="stroke:#000;stroke-width:.5" x="378.003" y="155.238" xlink:href="#mcb0005524f"/></g></g><g id="text_18"><g transform="translate(210.249431818 157.9975)scale(0.1 -0.1)"><use xlink:href="#BitstreamVeraSans-Roman-34"/><use x="63.623" xlink:href="#BitstreamVeraSans-Roman-30"/></g></g></g><g id="ytick_10"><g id="line2d_33"><g><use style="stroke:#000;stroke-width:.5" x="225.821" y="110.598" xlink:href="#m728421d6d4"/></g></g><g id="line2d_34"><g><use style="stroke:#000;stroke-width:.5" x="378.003" y="110.598" xlink:href="#mcb0005524f"/></g></g><g id="text_19"><g transform="translate(210.458806818 113.3575)scale(0.1 -0.1)"><use xlink:href="#BitstreamVeraSans-Roman-36"/><use x="63.623" xlink:href="#BitstreamVeraSans-Roman-30"/></g></g></g><g id="ytick_11"><g id="line2d_35"><g><use style="stroke:#000;stroke-width:.5" x="225.821" y="65.958" xlink:href="#m728421d6d4"/></g></g><g id="line2d_36"><g><use style="stroke:#000;stroke-width:.5" x="378.003" y="65.958" xlink:href="#mcb0005524f"/></g></g><g id="text_20"><g transform="translate(210.438494318 68.7175)scale(0.1 -0.1)"><use xlink:href="#BitstreamVeraSans-Roman-38"/><use x="63.623" xlink:href="#BitstreamVeraSans-Roman-30"/></g></g></g><g id="ytick_12"><g id="line2d_37"><g><use style="stroke:#000;stroke-width:.5" x="225.821" y="21.318" xlink:href="#m728421d6d4"/></g></g><g id="line2d_38"><g><use style="stroke:#000;stroke-width:.5" x="378.003" y="21.318" xlink:href="#mcb0005524f"/></g></g><g id="text_21"><g transform="translate(204.496306818 24.0775)scale(0.1 -0.1)"><use xlink:href="#BitstreamVeraSans-Roman-31"/><use x="63.623" xlink:href="#BitstreamVeraSans-Roman-30"/><use x="127.246" xlink:href="#BitstreamVeraSans-Roman-30"/></g></g></g></g><g id="patch_15"><path d="M225.821 21.3181 L378.003 21.3181" style="fill:none;stroke:#000"/></g><g id="patch_16"><path d="M378.003 244.518 L378.003 21.3181" style="fill:none;stroke:#000"/></g><g id="patch_17"><path d="M225.821 244.518 L378.003 244.518" style="fill:none;stroke:#000"/></g><g id="patch_18"><path d="M225.821 244.518 L225.821 21.3181" style="fill:none;stroke:#000"/></g><g id="text_22"><g transform="translate(244.214715909 16.318125)scale(0.12 -0.12)"><use xlink:href="#BitstreamVeraSans-Roman-28"/><use x="39.014" xlink:href="#BitstreamVeraSans-Roman-62"/><use x="102.49" xlink:href="#BitstreamVeraSans-Roman-29"/><use x="141.504" xlink:href="#BitstreamVeraSans-Roman-20"/><use x="173.291" xlink:href="#BitstreamVeraSans-Roman-50"/><use x="229.969" xlink:href="#BitstreamVeraSans-Roman-6f"/><use x="291.15" xlink:href="#BitstreamVeraSans-Roman-73"/><use x="343.25" xlink:href="#BitstreamVeraSans-Roman-74"/><use x="382.459" xlink:href="#BitstreamVeraSans-Roman-2d"/><use x="416.293" xlink:href="#BitstreamVeraSans-Roman-41"/><use x="484.701" xlink:href="#BitstreamVeraSans-Roman-73"/><use x="536.801" xlink:href="#BitstreamVeraSans-Roman-73"/><use x="588.9" xlink:href="#BitstreamVeraSans-Roman-65"/><use x="650.424" xlink:href="#BitstreamVeraSans-Roman-73"/><use x="702.523" xlink:href="#BitstreamVeraSans-Roman-6d"/><use x="799.936" xlink:href="#BitstreamVeraSans-Roman-65"/><use x="861.459" xlink:href="#BitstreamVeraSans-Roman-6e"/><use x="924.838" xlink:href="#BitstreamVeraSans-Roman-74"/></g></g></g></g><defs><clipPath id="p019a156991"><rect width="152.182" height="223.2" x="225.821" y="21.318"/></clipPath><clipPath id="pa6e26eda85"><rect width="152.182" height="223.2" x="43.203" y="21.318"/></clipPath></defs></svg>